
<svg xmlns="http://www.w3.org/2000/svg" width="72.831" height="53.813" viewBox="0 0 72.831 53.813">
  <path id="Tracé_37791" data-name="Tracé 37791" d="M77.816,61.922l-.81-2.1L67.383,48.76l24.26-26.244H84.573L63.735,45.06l-3.709-3.788.445-.478,16.9-18.278H70.294l-13.9,15.043L41.662,22.516H34.376l18.476,18.87-3.827,4.14L26.156,22.516H18.813l26.67,26.835L32.745,63.386h7.079l9.322-10.349L52.883,56.8,42.337,68.335h7.077l7.134-7.856.426.441,14.244,15.41h5.627l.972-1.09ZM56.423,52.969l-3.735-3.757,3.8-4.112L60.2,48.887Zm16.41,17.653L60.1,56.647l3.749-4.059,8.987,10.391Z" transform="translate(-18.813 -22.516)" fill="#d83e00"/>
</svg>
